<?xml version="1.0" encoding="UTF-8"?>
<svg id="Layer_2" data-name="Layer 2" xmlns="http://www.w3.org/2000/svg" xmlns:xlink="http://www.w3.org/1999/xlink" viewBox="0 0 540.75 44.7">
  <defs>
    <style>
      .cls-1, .cls-2 {
        fill: none;
      }

      .cls-2 {
        clip-path: url(#clippath);
      }
    </style>
    <clipPath id="clippath">
      <path class="cls-1" d="m48.52.71l-8.67,11.26H13.46v5.63h32.6l-8.15,10.54H13.46v15.85H0V.71h48.52Zm18.11,43.28h-13.39V.71h13.39v43.28ZM128.74.71l-8.67,11.26h-15.46v32.02h-13.39V11.97h-20.31L79.57.71h49.17Zm47.94,43.99c-.86,0-1.71-.14-2.56-.42-.84-.28-1.78-.92-2.81-1.91l-26.52-23.81v25.42h-12.16V8.09c0-1.42.2-2.65.61-3.69.41-1.04.95-1.88,1.62-2.52.67-.65,1.44-1.12,2.33-1.42.88-.3,1.8-.45,2.75-.45.82,0,1.65.14,2.49.42.84.28,1.8.92,2.88,1.91l26.52,23.81V.71h12.23v35.84c0,1.42-.21,2.65-.61,3.69-.41,1.04-.95,1.89-1.62,2.55-.67.67-1.46,1.16-2.36,1.46s-1.83.45-2.78.45Zm65.53-11.84l-8.6,11.13h-41.66V.71h50.14l-8.67,11.26h-28.01v5.18h34.29l-7.7,9.83h-26.59v5.89h36.81Zm44.7-14.88c5.3,0,9.34.98,12.1,2.94,2.76,1.96,4.14,4.93,4.14,8.9,0,2.2-.35,4.18-1.03,5.95-.69,1.77-1.79,3.26-3.3,4.46-1.51,1.21-3.44,2.13-5.79,2.78-2.35.65-5.17.97-8.44.97h-40.3l8.6-11.13h32.73c1.6,0,2.76-.25,3.49-.74.73-.5,1.1-1.3,1.1-2.43s-.37-1.92-1.1-2.39c-.73-.47-1.9-.71-3.49-.71h-23.55c-2.8,0-5.22-.3-7.25-.91-2.03-.6-3.71-1.44-5.05-2.52-1.34-1.08-2.33-2.38-2.98-3.91-.65-1.53-.97-3.22-.97-5.08,0-2.03.36-3.87,1.07-5.53.71-1.66,1.81-3.07,3.3-4.24,1.49-1.17,3.41-2.07,5.76-2.72,2.35-.65,5.16-.97,8.44-.97h37.59l-8.6,11.26h-30.02c-1.55,0-2.71.22-3.46.65-.75.43-1.13,1.21-1.13,2.33s.38,1.91,1.13,2.36c.75.45,1.91.68,3.46.68h23.55Zm62.3,0c5.3,0,9.34.98,12.1,2.94,2.76,1.96,4.14,4.93,4.14,8.9,0,2.2-.35,4.18-1.03,5.95-.69,1.77-1.79,3.26-3.3,4.46-1.51,1.21-3.44,2.13-5.79,2.78-2.35.65-5.17.97-8.44.97h-40.3l8.6-11.13h32.73c1.6,0,2.76-.25,3.49-.74.73-.5,1.1-1.3,1.1-2.43s-.37-1.92-1.1-2.39c-.73-.47-1.9-.71-3.49-.71h-23.55c-2.8,0-5.22-.3-7.25-.91-2.03-.6-3.71-1.44-5.05-2.52-1.34-1.08-2.33-2.38-2.98-3.91-.65-1.53-.97-3.22-.97-5.08,0-2.03.36-3.87,1.07-5.53.71-1.66,1.81-3.07,3.3-4.24,1.49-1.17,3.41-2.07,5.76-2.72,2.35-.65,5.16-.97,8.44-.97h37.59l-8.6,11.26h-30.02c-1.55,0-2.71.22-3.46.65-.75.43-1.13,1.21-1.13,2.33s.38,1.91,1.13,2.36c.75.45,1.91.68,3.46.68h23.55ZM421.27.71l-8.67,11.26h-15.46v32.02h-13.39V11.97h-20.31l8.67-11.26h49.17Zm8.73,43.28l8.09-11.13h14.91c1.4,0,2.62.04,3.66.13-.6-.78-1.31-1.76-2.1-2.94-.8-1.19-1.56-2.3-2.3-3.33l-7.76-11.45-20.31,28.72h-15.85l27.75-39.14c.91-1.25,2.05-2.37,3.43-3.36,1.38-.99,3.13-1.49,5.24-1.49s3.72.46,5.08,1.39c1.36.93,2.51,2.08,3.46,3.46l27.04,39.14h-50.33Zm103.96-22.25c1.9.56,3.5,1.66,4.82,3.3,1.31,1.64,1.97,3.75,1.97,6.34,0,1.81-.28,3.48-.84,5.01-.56,1.53-1.51,2.86-2.85,3.98-1.34,1.12-3.14,2.01-5.4,2.65-2.26.65-5.1.97-8.51.97h-38.04v-26.33h38.3c.99,0,1.87-.2,2.62-.62.75-.41,1.13-1.17,1.13-2.3s-.39-1.81-1.16-2.2c-.78-.39-1.64-.58-2.59-.58h-38.3l9.06-11.26h28.66c2.59,0,4.93.25,7.02.74,2.09.5,3.88,1.25,5.37,2.26,1.49,1.01,2.63,2.26,3.43,3.75.8,1.49,1.2,3.22,1.2,5.21,0,1.29-.17,2.44-.52,3.43-.35.99-.79,1.87-1.33,2.62-.54.75-1.16,1.38-1.88,1.88-.71.5-1.43.87-2.17,1.13Zm-35.39,5.18v5.95h24.65c1.47,0,2.52-.26,3.17-.78s.97-1.27.97-2.26-.32-1.67-.97-2.17c-.65-.5-1.7-.74-3.17-.74h-24.65Z"/>
    </clipPath>
  </defs>
  <g id="Layer_1-2" data-name="Layer 1">
    <g class="cls-2">
      <image width="8000" height="3500" transform="translate(-783.17 -217.82) scale(.31)" xlink:href="D:\LENEVO S145 LAPTOP BACKUP\LOCAL DISK D\VERVE ADVISORY\VAPL 3rd Anniversary\silver-metal-texture-background-design.jpg"/>
    </g>
  </g>
</svg>